HIERARCHY
ROOT Hips
{
	OFFSET 0.000000 0.000000 0.000000
	CHANNELS 6 Xposition Yposition Zposition Xrotation Yrotation Zrotation
	JOINT LeftUpLeg_virtual
	{
		OFFSET 0.000000 0.000000 0.000000
		CHANNELS 3 Xrotation Yrotation Zrotation
		JOINT LeftUpLeg
		{
			OFFSET 15.427100 -6.655098 0.678600
			CHANNELS 3 Xrotation Yrotation Zrotation
			JOINT LeftLeg
			{
				OFFSET 4.081073 -39.591068 13.024000
				CHANNELS 3 Xrotation Yrotation Zrotation
				JOINT LeftFoot
				{
					OFFSET -4.081074 -37.707932 -15.979700
					CHANNELS 3 Xrotation Yrotation Zrotation
					JOINT LeftToeBase
					{
						OFFSET 5.346399 -15.068900 20.645000
						CHANNELS 3 Xrotation Yrotation Zrotation
						JOINT LeftToe_End
						{
							OFFSET 2.754700 0.931300 11.300900
							CHANNELS 3 Xrotation Yrotation Zrotation
							End Site
							{
								OFFSET 0 0 0
							}
						}
					}
				}
			}
		}
	}
	JOINT RightUpLeg_virtual
	{
		OFFSET 0.000000 0.000000 0.000000
		CHANNELS 3 Xrotation Yrotation Zrotation
		JOINT RightUpLeg
		{
			OFFSET -15.569500 -6.655098 0.678600
			CHANNELS 3 Xrotation Yrotation Zrotation
			JOINT RightLeg
			{
				OFFSET -4.081825 -39.591045 13.023800
				CHANNELS 3 Xrotation Yrotation Zrotation
				JOINT RightFoot
				{
					OFFSET 4.081824 -37.707954 -15.979600
					CHANNELS 3 Xrotation Yrotation Zrotation
					JOINT RightToeBase
					{
						OFFSET -5.346400 -15.068900 20.645000
						CHANNELS 3 Xrotation Yrotation Zrotation
						JOINT RightToe_End
						{
							OFFSET -2.754700 0.931300 11.300900
							CHANNELS 3 Xrotation Yrotation Zrotation
							End Site
							{
								OFFSET 0 0 0
							}
						}
					}
				}
			}
		}
	}
	JOINT Spine_virtual
	{
		OFFSET 0.000000 0.000000 0.000000
		CHANNELS 3 Xrotation Yrotation Zrotation
		JOINT Spine
		{
			OFFSET -0.279200 12.230698 -2.892100
			CHANNELS 3 Xrotation Yrotation Zrotation
			JOINT Spine1
			{
				OFFSET -0.232667 10.192268 -1.242267
				CHANNELS 3 Xrotation Yrotation Zrotation
				JOINT Spine1_split
				{
					OFFSET -0.232667 10.192268 -1.242267
					CHANNELS 3 Xrotation Yrotation Zrotation
					JOINT Spine2
					{
						OFFSET -0.232667 10.192268 -1.242267
						CHANNELS 3 Xrotation Yrotation Zrotation
						JOINT Neck_virtual
						{
							OFFSET 0.000000 0.000000 0.000000
							CHANNELS 3 Xrotation Yrotation Zrotation
							JOINT Neck
							{
								OFFSET -0.418800 17.814194 8.416900
								CHANNELS 3 Xrotation Yrotation Zrotation
								JOINT Head
								{
									OFFSET 0.000000 7.031097 3.806800
									CHANNELS 3 Xrotation Yrotation Zrotation
									JOINT HeadTop_End
									{
										OFFSET 0.000000 24.646606 12.978600
										CHANNELS 3 Xrotation Yrotation Zrotation
										End Site
										{
											OFFSET 0 0 0
										}
									}
								}
							}
						}
						JOINT LeftShoulder_virtual
						{
							OFFSET 0.000000 0.000000 0.000000
							CHANNELS 3 Xrotation Yrotation Zrotation
							JOINT LeftShoulder
							{
								OFFSET 8.476499 7.247704 -3.868750
								CHANNELS 3 Xrotation Yrotation Zrotation
								JOINT LeftShoulder_split
								{
									OFFSET 8.476499 7.247704 -3.868750
									CHANNELS 3 Xrotation Yrotation Zrotation
									JOINT LeftArm
									{
										OFFSET 9.308998 -2.777710 0.208600
										CHANNELS 3 Xrotation Yrotation Zrotation
										JOINT LeftForeArm
										{
											OFFSET 29.972298 0.000000 0.000000
											CHANNELS 3 Xrotation Yrotation Zrotation
											JOINT LeftHand
											{
												OFFSET 26.026505 0.000000 0.000000
												CHANNELS 3 Xrotation Yrotation Zrotation
												End Site
												{
													OFFSET 0 0 0
												}
											}
										}
									}
								}
							}
						}
						JOINT RightShoulder_virtual
						{
							OFFSET 0.000000 0.000000 0.000000
							CHANNELS 3 Xrotation Yrotation Zrotation
							JOINT RightShoulder
							{
								OFFSET -7.570500 7.247704 -3.868750
								CHANNELS 3 Xrotation Yrotation Zrotation
								JOINT RightShoulder_split
								{
									OFFSET -7.570500 7.247704 -3.868750
									CHANNELS 3 Xrotation Yrotation Zrotation
									JOINT RightArm
									{
										OFFSET -9.308998 -2.777710 0.208500
										CHANNELS 3 Xrotation Yrotation Zrotation
										JOINT RightForeArm
										{
											OFFSET -29.972300 0.000000 0.000000
											CHANNELS 3 Xrotation Yrotation Zrotation
											JOINT RightHand
											{
												OFFSET -26.026505 0.000000 0.000000
												CHANNELS 3 Xrotation Yrotation Zrotation
												End Site
												{
													OFFSET 0 0 0
												}
											}
										}
									}
								}
							}
						}
					}
				}
			}
		}
	}
}
MOTION
Frames: 5
Frame Time: 0.03333333
1.211835 85.342400 -0.729107 0.000000 0.000000 0.000000 -6.107883 -43.249362 -4.104280 -29.866279 5.161990 13.477539 32.766077 -12.903651 0.004109 -0.233615 0.070721 -8.593840 -2.319086 -3.216991 0.802951 0.000000 0.000000 0.000000 -6.107883 -43.249362 -4.104280 1.367679 -13.647068 -19.020530 31.299683 -6.214642 0.764541 -23.464087 -7.009651 20.453825 -1.785018 -0.356683 0.333184 0.000000 0.000000 0.000000 -6.107883 -43.249362 -4.104280 5.829516 4.866484 -1.192869 11.836539 9.037613 -3.083967 0.000000 0.000000 0.000000 0.000000 0.000000 0.000000 11.836542 9.037615 -3.083968 -9.907371 -1.416032 0.452970 -0.529821 20.570694 -0.772811 0.000000 0.000000 0.000000 11.836542 9.037615 -3.083968 1.396582 -0.734464 -7.859325 0.000000 0.000000 0.000000 -14.236640 2.407733 -63.256793 9.875225 -47.538390 5.912055 0.000000 0.000000 0.000000 11.836542 9.037615 -3.083968 1.410915 9.461496 9.792762 0.000000 0.000000 0.000000 1.220053 -24.270693 60.532838 -6.660678 41.858428 8.043880 0.000000 0.000000 0.000000 
1.972127 83.997322 -1.464031 0.000000 0.000000 0.000000 -3.057929 -44.812250 -1.732869 -34.034296 5.024517 13.964808 35.055171 -12.120259 0.072560 -0.454509 0.266149 -8.996488 -2.120714 -2.940643 0.733047 0.000000 0.000000 0.000000 -3.057929 -44.812250 -1.732869 -3.178195 -8.560562 -19.488297 35.993820 -8.928311 0.536255 -24.456336 -7.210832 22.135822 -1.954007 -0.510392 0.392328 0.000000 0.000000 0.000000 -3.057929 -44.812250 -1.732869 6.039573 4.632455 -1.261581 12.224174 8.528417 -2.981041 0.000000 0.000000 0.000000 0.000000 0.000000 0.000000 12.224176 8.528398 -2.981035 -12.706016 0.665368 1.229651 -2.359375 22.874645 -2.642890 0.000000 0.000000 0.000000 12.224176 8.528398 -2.981035 0.265572 -1.356439 -8.721382 0.000000 0.000000 0.000000 -15.849131 -0.272482 -61.599113 11.914445 -42.970663 5.909666 0.000000 0.000000 0.000000 12.224176 8.528398 -2.981035 0.311094 10.730825 8.924908 0.000000 0.000000 0.000000 0.830485 -21.973979 60.244563 -4.994663 43.080015 7.063721 0.000000 0.000000 0.000000 
3.145866 81.987808 -2.609329 0.000000 0.000000 0.000000 1.826156 -46.296457 2.456659 -40.240893 4.440776 14.163518 37.995181 -10.962274 0.125254 -0.297535 0.519786 -9.659360 -1.899874 -2.633025 0.655217 0.000000 0.000000 0.000000 1.826156 -46.296457 2.456659 -10.792209 -4.592838 -20.793703 42.198767 -9.621517 0.492823 -25.635257 -7.042695 23.170990 -2.254353 -0.829120 0.416639 0.000000 0.000000 0.000000 1.826156 -46.296457 2.456659 6.295199 4.225569 -1.538872 12.699073 7.684461 -3.146811 0.000000 0.000000 0.000000 0.000000 0.000000 0.000000 12.699076 7.684449 -3.146807 -17.369958 3.005142 2.119273 -3.503563 25.295356 -4.286097 0.000000 0.000000 0.000000 12.699076 7.684449 -3.146807 -0.875533 -1.769863 -10.074785 0.000000 0.000000 0.000000 -18.137854 -3.049771 -58.867529 13.873460 -38.764752 5.003127 0.000000 0.000000 0.000000 12.699076 7.684449 -3.146807 -0.838667 13.098417 8.883106 0.000000 0.000000 0.000000 -0.164347 -19.694721 59.041207 -3.226328 44.201463 6.321419 0.000000 0.000000 0.000000 
4.569037 78.380341 -3.944153 0.000000 0.000000 0.000000 8.251770 -47.328758 8.025534 -49.223076 2.785892 14.522410 43.389972 -9.543912 0.061180 -0.537198 0.854184 -10.648462 -1.663663 -2.303990 0.571971 0.000000 0.000000 0.000000 8.251770 -47.328758 8.025534 -21.171150 -1.296016 -22.610392 50.748353 -8.385418 0.415979 -27.764825 -6.931950 23.874124 -2.459543 -1.177256 0.303404 0.000000 0.000000 0.000000 8.251770 -47.328758 8.025534 6.543869 3.713439 -1.889769 13.169143 6.618400 -3.493476 0.000000 0.000000 0.000000 0.000000 0.000000 0.000000 13.169147 6.618414 -3.493483 -22.329847 5.380600 3.884523 -4.739457 27.737866 -6.099992 0.000000 0.000000 0.000000 13.169147 6.618414 -3.493483 -2.086164 -1.814105 -11.473725 0.000000 0.000000 0.000000 -20.799866 -6.411803 -56.372304 15.798251 -34.521907 4.124785 0.000000 0.000000 0.000000 13.169147 6.618414 -3.493483 -1.942411 15.825371 9.625618 0.000000 0.000000 0.000000 -1.897450 -17.221376 57.395712 -0.791323 45.123098 4.765387 0.000000 0.000000 0.000000 
6.069921 74.276436 -5.358940 0.000000 0.000000 0.000000 15.670158 -47.450823 14.459154 -59.247725 0.214549 14.589264 48.854704 -7.791626 0.041421 -0.261991 1.186152 -12.273526 -1.419175 -1.963407 0.485810 0.000000 0.000000 0.000000 15.670158 -47.450823 14.459154 -32.475565 1.914765 -24.312989 59.193479 -6.799743 0.323911 -29.699862 -6.658543 24.269073 -2.548112 -1.589162 0.089469 0.000000 0.000000 0.000000 15.670158 -47.450823 14.459154 6.797201 3.120463 -2.321574 13.656721 5.421482 -4.034901 0.000000 0.000000 0.000000 0.000000 0.000000 0.000000 13.656727 5.421469 -4.034893 -27.810461 7.189903 6.699146 -5.437032 30.189921 -7.887636 0.000000 0.000000 0.000000 13.656727 5.421469 -4.034893 -3.021314 -1.594956 -12.831287 0.000000 0.000000 0.000000 -26.898004 -12.683002 -55.109702 15.744488 -24.195387 3.605378 0.000000 0.000000 0.000000 13.656727 5.421469 -4.034893 -2.731092 17.626307 11.069233 0.000000 0.000000 0.000000 -4.825932 -13.979234 55.763020 0.666417 46.415380 3.278740 0.000000 0.000000 0.000000 
